<svg width="32" height="32" viewBox="0 0 32 32" fill="none" xmlns="http://www.w3.org/2000/svg">
<g clip-path="url(#clip0_476_94)">
<g clip-path="url(#clip1_476_94)">
<path fill-rule="evenodd" clip-rule="evenodd" d="M9.39365 31.88H2.85901V20.1177H9.39365V22.3852C10.2275 22.1264 11.1214 21.7382 11.7004 21.4847C12.5394 21.1188 13.3458 20.9397 14.1665 20.9397C15.7532 20.9397 17.0483 21.5919 19.7903 22.5146C20.6267 22.7942 21.1965 23.4503 21.3259 24.2214C22.7949 23.0935 25.1421 21.2717 25.1643 21.2547C25.6309 20.8835 26.1746 20.6875 26.7327 20.6875C27.9769 20.6875 29.0211 21.6847 29.0211 22.9197C29.0211 23.5601 28.7349 24.1966 28.2016 24.6919C26.4007 26.3648 25.0062 27.6103 23.7751 28.7094C23.0432 29.3642 22.3819 29.9536 21.752 30.5299C20.7731 31.4278 19.768 31.8447 18.5879 31.8447C18.0586 31.8447 17.5005 31.7598 16.8784 31.5833C13.2543 30.56 11.0182 30.2294 9.39365 30.1392V31.88ZM8.08672 21.4246H4.16594V30.5731H8.08672V21.4246ZM9.39365 28.827C12.1277 28.9812 15.1507 29.7366 17.2339 30.3261C18.3017 30.628 19.5354 30.7887 20.8698 29.5667C22.5413 28.035 24.4272 26.4131 27.3116 23.7339C28.3885 22.7341 27.079 21.4037 25.9759 22.2793C25.9759 22.2793 22.1061 25.2839 21.1547 25.9949C20.6594 26.3674 20.2464 26.6732 19.6543 26.6732C19.5145 26.6732 19.3629 26.6562 19.1982 26.6183C18.3422 26.421 16.7373 26.0629 15.5976 25.7022C14.8461 25.463 15.1128 24.4044 15.9479 24.5808C16.5321 24.7024 18.0311 25.0382 18.8244 25.2604C20.1536 25.6277 20.4921 24.1273 19.376 23.7548C18.6415 23.5065 18.6741 23.4961 16.9072 22.8857C15.2069 22.2963 14.0136 21.9016 12.2218 22.6818C11.3867 23.0452 10.3503 23.4869 9.39365 23.7457V28.827ZM14.3469 2.80217L18.5421 0.513741L27.6906 5.55848V15.5918L18.5421 20.4731L9.39365 15.5918V5.50359L14.3391 2.80609L14.3417 2.79956L14.3469 2.80217ZM17.8887 10.6633L10.7006 6.9203V14.8076L17.8887 18.6434V10.6633ZM19.1956 10.6646V18.6434L26.3837 14.8076V6.96604L19.1956 10.6646ZM21.5089 8.00505L14.36 4.28292L11.4821 5.85385L18.5448 9.53024L21.5089 8.00505ZM15.7427 3.52882L22.9321 7.27186L25.6009 5.89828L18.5382 2.00495L15.7427 3.52882Z" fill="black"/>
<path d="M17.8887 10.6633L10.7006 6.9203V14.8076L17.8887 18.6434V10.6633Z" fill="#785644"/>
<path d="M19.1956 10.6646V18.6434L26.3837 14.8076V6.96604L19.1956 10.6646Z" fill="#785644"/>
<path d="M21.5089 8.00505L14.36 4.28292L11.4821 5.85385L18.5448 9.53024L21.5089 8.00505Z" fill="#A3755C"/>
<path d="M15.7427 3.52882L22.9321 7.27186L25.6009 5.89828L18.5382 2.00495L15.7427 3.52882Z" fill="#A3755C"/>
<path d="M9.39365 28.827C12.1277 28.9812 15.1507 29.7366 17.2339 30.3261C18.3017 30.628 19.5354 30.7887 20.8698 29.5667C22.5413 28.035 24.4272 26.4131 27.3116 23.7339C28.3885 22.7341 27.079 21.4037 25.9759 22.2793C25.9759 22.2793 22.1061 25.2839 21.1547 25.9949C20.6594 26.3674 20.2464 26.6732 19.6543 26.6732C19.5145 26.6732 19.3629 26.6562 19.1982 26.6183C18.3422 26.421 16.7373 26.0629 15.5976 25.7022C14.8461 25.463 15.1128 24.4044 15.9479 24.5808C16.5321 24.7024 18.0311 25.0382 18.8244 25.2604C20.1536 25.6277 20.4921 24.1273 19.376 23.7548C18.6415 23.5065 18.6741 23.4961 16.9072 22.8857C15.2069 22.2963 14.0136 21.9016 12.2218 22.6818C11.3867 23.0452 10.3503 23.4869 9.39365 23.7457V28.827Z" fill="#B0B0B0"/>
<path d="M8.08672 21.4246H4.16594V30.5731H8.08672V21.4246Z" fill="#4289E5"/>
</g>
</g>
<defs>
<clipPath id="clip0_476_94">
<rect width="31.88" height="32" fill="white"/>
</clipPath>
<clipPath id="clip1_476_94">
<rect width="31.88" height="31.88" fill="white"/>
</clipPath>
</defs>
</svg>
