<svg width="36" height="36" viewBox="0 0 36 36" fill="none" xmlns="http://www.w3.org/2000/svg">
<g clip-path="url(#clip0_476_38)">
<path fill-rule="evenodd" clip-rule="evenodd" d="M10.2632 36H2.93234V22.8045H10.2632V25.3483C11.1986 25.058 12.2015 24.6225 12.851 24.3381C13.7923 23.9275 14.6969 23.7267 15.6177 23.7267C17.3976 23.7267 18.8506 24.4583 21.9266 25.4934C22.865 25.8072 23.5042 26.5432 23.6494 27.4082C25.2973 26.1429 27.9306 24.0991 27.9555 24.08C28.4789 23.6636 29.0889 23.4437 29.7149 23.4437C31.1107 23.4437 32.2822 24.5624 32.2822 25.9479C32.2822 26.6663 31.9611 27.3804 31.3629 27.9361C29.3425 29.8128 27.7781 31.21 26.397 32.4431C25.5759 33.1776 24.834 33.8389 24.1273 34.4854C23.0292 35.4927 21.9017 35.9604 20.5777 35.9604C19.9839 35.9604 19.3579 35.8651 18.66 35.6672C14.5943 34.5192 12.0857 34.1482 10.2632 34.0471V36ZM8.79703 24.2706H4.39852V34.5338H8.79703V24.2706ZM10.2632 32.575C13.3304 32.748 16.7217 33.5955 19.0588 34.2567C20.2566 34.5954 21.6407 34.7757 23.1377 33.4049C25.0129 31.6865 27.1286 29.867 30.3644 26.8614C31.5725 25.7397 30.1034 24.2472 28.866 25.2295C28.866 25.2295 24.5247 28.6002 23.4573 29.3978C22.9016 29.8157 22.4383 30.1588 21.7741 30.1588C21.6172 30.1588 21.4472 30.1397 21.2624 30.0972C20.3021 29.8758 18.5016 29.4741 17.2231 29.0694C16.3801 28.8011 16.6792 27.6135 17.6161 27.8114C18.2714 27.9478 19.9531 28.3246 20.8431 28.5738C22.3342 28.9858 22.7139 27.3027 21.4618 26.8848C20.6378 26.6062 20.6745 26.5945 18.6922 25.9098C16.7847 25.2486 15.4461 24.8058 13.436 25.6811C12.4991 26.0887 11.3364 26.5842 10.2632 26.8745V32.575ZM15.82 3.37914L20.5264 0.811874L30.7896 6.4713V17.7271L20.5264 23.2033L10.2632 17.7271V6.40972L15.8112 3.38354L15.8141 3.37621L15.82 3.37914ZM19.7933 12.1982L11.7294 7.99905V16.8474L19.7933 21.1506V12.1982ZM21.2595 12.1996V21.1506L29.3234 16.8474V8.05036L21.2595 12.1996ZM23.8546 9.21597L15.8347 5.04031L12.6061 6.80265L20.5293 10.927L23.8546 9.21597ZM17.3859 4.19433L25.4513 8.39345L28.4452 6.8525L20.522 2.48478L17.3859 4.19433Z" fill="black"/>
</g>
<defs>
<clipPath id="clip0_476_38">
<rect width="35.1881" height="35.1881" fill="white" transform="translate(0 0.811874)"/>
</clipPath>
</defs>
</svg>
